# xmcd
#
# Track frame offsets:
# 150
# 17245
# 33010
# 49978
# 64732
# 76200
# 88485
# 103314
# 116888
# 130420
# 146035
# 160753
# 178350
# 190225
#
# Disc length: 2757 seconds
#
#
# Revision: 0
# Processed by: cddbd v1.5.2PL0 Copyright (c) Steve Scherf et al.
# Submitted via: FreeRIP 2.941 
#
DISCID=cf0ac30e
DTITLE=Don Williams - The Journey
DYEAR=2008
DGENRE=Country
TTITLE0=Leaving for the Flatlands
TTITLE1=I Need You to Want Me
TTITLE2=Oh Misery
TTITLE3=My Heart to You
TTITLE4=Fly Away
TTITLE5=One Like Me
TTITLE6=Lay Down Beside Me
TTITLE7=Love Me Over Again
TTITLE8=Shelter of Your Eyes
TTITLE9='Til the Rivers All Run Dry
TTITLE10=When I'm With You
TTITLE11=Running in the Fast Lane
TTITLE12=We're All the Way
TTITLE13=I Sing for Joy
EXTD=
EXTT0=
EXTT1=
EXTT2=
EXTT3=
EXTT4=
EXTT5=
EXTT6=
EXTT7=
EXTT8=
EXTT9=
EXTT10=
EXTT11=
EXTT12=
EXTT13=
PLAYORDER=
